<svg width="18" height="18" viewBox="0 0 18 18" fill="none" xmlns="http://www.w3.org/2000/svg">
<g clip-path="url(#clip0_2467_4015)">
<path d="M5.68594 3.06L4.61344 1.9875C2.81344 3.36 1.62844 5.475 1.52344 7.875H3.02344C3.13594 5.8875 4.15594 4.1475 5.68594 3.06ZM14.9784 7.875H16.4784C16.3659 5.475 15.1809 3.36 13.3884 1.9875L12.3234 3.06C13.8384 4.1475 14.8659 5.8875 14.9784 7.875ZM13.5009 8.25C13.5009 5.9475 12.2709 4.02 10.1259 3.51V3C10.1259 2.3775 9.62344 1.875 9.00094 1.875C8.37844 1.875 7.87594 2.3775 7.87594 3V3.51C5.72344 4.02 4.50094 5.94 4.50094 8.25V12L3.00094 13.5V14.25H15.0009V13.5L13.5009 12V8.25ZM9.00094 16.5C9.10594 16.5 9.20344 16.4925 9.30094 16.47C9.78844 16.365 10.1859 16.035 10.3809 15.585C10.4559 15.405 10.4934 15.21 10.4934 15H7.49344C7.50094 15.825 8.16844 16.5 9.00094 16.5Z" fill="#B84040"/>
</g>
<defs>
<clipPath id="clip0_2467_4015">
<rect width="18" height="18" fill="white"/>
</clipPath>
</defs>
</svg>
