<svg width="16" height="16" viewBox="0 0 16 16" fill="none" xmlns="http://www.w3.org/2000/svg">
<g opacity="0.6" clip-path="url(#clip0_1736_19667)">
<path d="M13.6667 4.13333H12V4C12 2.93913 11.5786 1.92172 10.8284 1.17157C10.0783 0.421427 9.06087 0 8 0C6.93913 0 5.92172 0.421427 5.17157 1.17157C4.42143 1.92172 4 2.93913 4 4V4.13333H2.33333C1.71681 4.14077 1.12762 4.38899 0.691642 4.82498C0.255659 5.26096 0.00743823 5.85014 0 6.46667L0 12.3333C0.00852678 13.3032 0.397573 14.2308 1.08337 14.9166C1.76916 15.6024 2.69685 15.9915 3.66667 16H12.3333C13.3032 15.9915 14.2308 15.6024 14.9166 14.9166C15.6024 14.2308 15.9915 13.3032 16 12.3333V6.46667C15.9926 5.85014 15.7443 5.26096 15.3084 4.82498C14.8724 4.38899 14.2832 4.14077 13.6667 4.13333ZM6 4C6 3.46957 6.21071 2.96086 6.58579 2.58579C6.96086 2.21071 7.46957 2 8 2C8.53043 2 9.03914 2.21071 9.41421 2.58579C9.78929 2.96086 10 3.46957 10 4V4.13333H6V4ZM14 12.3333C14.0021 12.5528 13.9605 12.7705 13.8775 12.9737C13.7945 13.1768 13.6718 13.3614 13.5166 13.5166C13.3614 13.6718 13.1768 13.7945 12.9737 13.8775C12.7705 13.9605 12.5528 14.0021 12.3333 14H3.66667C3.4472 14.0021 3.22952 13.9605 3.02634 13.8775C2.82317 13.7945 2.63858 13.6718 2.48339 13.5166C2.3282 13.3614 2.20551 13.1768 2.12251 12.9737C2.03951 12.7705 1.99786 12.5528 2 12.3333V6.46667C1.99727 6.42218 2.00403 6.37763 2.01981 6.33595C2.0356 6.29427 2.06006 6.25642 2.09157 6.22491C2.12309 6.19339 2.16094 6.16893 2.20262 6.15315C2.24429 6.13736 2.28885 6.13061 2.33333 6.13333H4V7C4 7.26522 4.10536 7.51957 4.29289 7.70711C4.48043 7.89464 4.73478 8 5 8C5.26522 8 5.51957 7.89464 5.70711 7.70711C5.89464 7.51957 6 7.26522 6 7V6.13333H10V7C10 7.26522 10.1054 7.51957 10.2929 7.70711C10.4804 7.89464 10.7348 8 11 8C11.2652 8 11.5196 7.89464 11.7071 7.70711C11.8946 7.51957 12 7.26522 12 7V6.13333H13.6667C13.7112 6.13061 13.7557 6.13736 13.7974 6.15315C13.8391 6.16893 13.8769 6.19339 13.9084 6.22491C13.9399 6.25642 13.9644 6.29427 13.9802 6.33595C13.996 6.37763 14.0027 6.42218 14 6.46667V12.3333Z" fill="#4F4F4F"/>
</g>
<defs>
<clipPath id="clip0_1736_19667">
<rect width="16" height="16" fill="white"/>
</clipPath>
</defs>
</svg>
