<svg width="17" height="16" viewBox="0 0 17 16" fill="none" xmlns="http://www.w3.org/2000/svg">
<g opacity="0.6" clip-path="url(#clip0_1736_12375)">
<path d="M12.8003 10.6333C12.3142 10.632 11.8327 10.7272 11.3837 10.9132C10.9346 11.0993 10.527 11.3726 10.1843 11.7173C8.64894 13.2533 6.48961 14 3.58428 14H2.85094C2.78112 14.0007 2.7127 13.9804 2.65451 13.9418C2.59632 13.9032 2.55102 13.8481 2.52448 13.7835C2.49793 13.7189 2.49134 13.6479 2.50556 13.5795C2.51979 13.5112 2.55417 13.4486 2.60428 13.4L4.14228 11.8667L11.7776 9.83067C12.5585 9.62187 13.2486 9.16111 13.7408 8.51992C14.233 7.87873 14.4997 7.09298 14.4996 6.28467V3.66667C14.4984 2.69459 14.1117 1.76267 13.4243 1.07531C12.7369 0.38794 11.805 0.00123484 10.8329 0L8.21494 0C7.4072 0.000612047 6.62221 0.267691 5.9817 0.759827C5.34119 1.25196 4.88093 1.94167 4.67228 2.722L2.56961 10.6067L1.18961 11.988C0.861162 12.3168 0.637538 12.7355 0.546997 13.1914C0.456456 13.6472 0.503061 14.1196 0.680922 14.549C0.858782 14.9783 1.15992 15.3453 1.54628 15.6036C1.93264 15.8619 2.38688 15.9998 2.85161 16H3.58494C6.99961 16 9.69628 15.0353 11.5989 13.1333C11.8365 12.8959 12.1391 12.7341 12.4686 12.6686C12.798 12.603 13.1395 12.6365 13.4499 12.765C13.7603 12.8934 14.0257 13.1109 14.2125 13.39C14.3993 13.6692 14.4992 13.9974 14.4996 14.3333V15C14.4996 15.2652 14.605 15.5196 14.7925 15.7071C14.98 15.8946 15.2344 16 15.4996 16C15.7648 16 16.0192 15.8946 16.2067 15.7071C16.3943 15.5196 16.4996 15.2652 16.4996 15V14.3333C16.4987 13.3524 16.1087 12.4119 15.4152 11.7182C14.7216 11.0246 13.7812 10.6344 12.8003 10.6333ZM6.60428 3.23733C6.67886 2.96068 6.82378 2.70804 7.02494 2.504L9.63294 4.95867L12.0523 2.53867C12.3388 2.84449 12.4987 3.2476 12.4996 3.66667V6.28467C12.4988 6.6612 12.3705 7.02637 12.1356 7.32067L9.63294 4.95867L4.94028 9.58067L4.91094 9.58867L6.60428 3.23733Z" fill="#4F4F4F"/>
</g>
<defs>
<clipPath id="clip0_1736_12375">
<rect width="16" height="16" fill="white" transform="translate(0.5)"/>
</clipPath>
</defs>
</svg>
