<svg width="17" height="16" viewBox="0 0 17 16" fill="none" xmlns="http://www.w3.org/2000/svg">
<g opacity="0.6" clip-path="url(#clip0_1736_19898)">
<path d="M16.5 6.72787L15.6673 2.87187C15.4902 2.0555 15.038 1.32477 14.3864 0.802052C13.7348 0.279334 12.9234 -0.00363462 12.088 0.000533682H4.912C4.07665 -0.00363462 3.26523 0.279334 2.61362 0.802052C1.96201 1.32477 1.50978 2.0555 1.33267 2.87187L0.524 6.5112L0.5 7.36453C0.503014 8.03343 0.738716 8.68044 1.16667 9.19453V12.3339C1.16773 13.306 1.55437 14.238 2.24178 14.9254C2.92918 15.6128 3.8612 15.9995 4.83333 16.0005H12.1667C13.1388 15.9995 14.0708 15.6128 14.7582 14.9254C15.4456 14.238 15.8323 13.306 15.8333 12.3339V9.19453C16.2613 8.68044 16.497 8.03343 16.5 7.36453V6.72787ZM2.5 6.83787L3.28467 3.30453C3.36716 2.9345 3.57335 2.60365 3.8692 2.36658C4.16505 2.12952 4.53288 2.0004 4.912 2.00053H5.16667V3.00053C5.16667 3.26575 5.27202 3.5201 5.45956 3.70764C5.6471 3.89518 5.90145 4.00053 6.16667 4.00053C6.43188 4.00053 6.68624 3.89518 6.87377 3.70764C7.06131 3.5201 7.16667 3.26575 7.16667 3.00053V2.00053H9.83333V3.00053C9.83333 3.26575 9.93869 3.5201 10.1262 3.70764C10.3138 3.89518 10.5681 4.00053 10.8333 4.00053C11.0985 4.00053 11.3529 3.89518 11.5404 3.70764C11.728 3.5201 11.8333 3.26575 11.8333 3.00053V2.00053H12.088C12.4673 2.00046 12.8353 2.12977 13.1312 2.3671C13.427 2.60444 13.6331 2.93559 13.7153 3.30587L14.5 6.83787V7.36453C14.4936 7.60135 14.395 7.82632 14.2252 7.99156C14.0555 8.15679 13.8279 8.24925 13.591 8.24925C13.3541 8.24925 13.1265 8.15679 12.9568 7.99156C12.787 7.82632 12.6884 7.60135 12.682 7.36453C12.6864 7.14687 12.6473 6.93051 12.5671 6.72814C12.4868 6.52576 12.367 6.34143 12.2146 6.18594C12.0622 6.03045 11.8803 5.90693 11.6796 5.8226C11.4789 5.73827 11.2634 5.69484 11.0457 5.69484C10.828 5.69484 10.6124 5.73827 10.4117 5.8226C10.211 5.90693 10.0291 6.03045 9.87675 6.18594C9.72437 6.34143 9.60454 6.52576 9.52428 6.72814C9.44402 6.93051 9.40494 7.14687 9.40933 7.36453C9.40933 7.6057 9.31353 7.837 9.143 8.00753C8.97246 8.17806 8.74117 8.27387 8.5 8.27387C8.25883 8.27387 8.02754 8.17806 7.857 8.00753C7.68647 7.837 7.59067 7.6057 7.59067 7.36453C7.59506 7.14687 7.55598 6.93051 7.47572 6.72814C7.39546 6.52576 7.27563 6.34143 7.12325 6.18594C6.97087 6.03045 6.789 5.90693 6.58828 5.8226C6.38757 5.73827 6.17204 5.69484 5.95433 5.69484C5.73662 5.69484 5.5211 5.73827 5.32039 5.8226C5.11967 5.90693 4.9378 6.03045 4.78542 6.18594C4.63303 6.34143 4.5132 6.52576 4.43294 6.72814C4.35268 6.93051 4.31361 7.14687 4.318 7.36453C4.31159 7.60135 4.213 7.82632 4.04323 7.99156C3.87346 8.15679 3.64591 8.24925 3.409 8.24925C3.17209 8.24925 2.94454 8.15679 2.77477 7.99156C2.605 7.82632 2.50641 7.60135 2.5 7.36453V6.83787ZM12.1667 14.0005H4.83333C4.39131 14.0005 3.96738 13.8249 3.65482 13.5124C3.34226 13.1998 3.16667 12.7759 3.16667 12.3339V10.2485C3.248 10.2559 3.326 10.2732 3.40933 10.2732C3.92904 10.2728 4.43917 10.1333 4.88676 9.8692C5.33435 9.60508 5.70308 9.22596 5.95467 8.7712C6.20602 9.22613 6.57471 9.60538 7.02235 9.86948C7.47 10.1336 7.98025 10.2729 8.5 10.2729C9.01975 10.2729 9.53 10.1336 9.97765 9.86948C10.4253 9.60538 10.794 9.22613 11.0453 8.7712C11.2969 9.22596 11.6656 9.60508 12.1132 9.8692C12.5608 10.1333 13.071 10.2728 13.5907 10.2732C13.674 10.2732 13.752 10.2559 13.8333 10.2485V12.3339C13.8333 12.5527 13.7902 12.7695 13.7065 12.9717C13.6227 13.1739 13.4999 13.3576 13.3452 13.5124C13.1904 13.6671 13.0067 13.7899 12.8045 13.8737C12.6023 13.9574 12.3855 14.0005 12.1667 14.0005Z" fill="#4F4F4F"/>
</g>
<defs>
<clipPath id="clip0_1736_19898">
<rect width="16" height="16" fill="white" transform="translate(0.5)"/>
</clipPath>
</defs>
</svg>
