<svg width="16" height="16" viewBox="0 0 16 16" fill="none" xmlns="http://www.w3.org/2000/svg">
<g opacity="0.6" clip-path="url(#clip0_1736_14161)">
<path d="M15.3167 5.79668L10.5927 1.07269C9.15971 -0.356587 6.84031 -0.356587 5.40734 1.07269L0.683351 5.79668C0.244352 6.23334 -0.0017098 6.82746 8.94393e-06 7.44668V14.3653C0.00147769 15.2684 0.733601 15.9999 1.63669 16.0007H14.3633C15.2664 15.9999 15.9985 15.2684 16 14.3653V7.44668C16.0017 6.82746 15.7557 6.23334 15.3167 5.79668ZM14 14.0007H10.6667V11.8793C10.6667 10.4736 9.52708 9.33399 8.12134 9.33399H7.87868C6.47293 9.33399 5.33334 10.4736 5.33334 11.8793V14.0007H2.00001V7.44668C2.00022 7.35827 2.03516 7.27352 2.09735 7.21068L6.82134 2.48669C7.47212 1.83572 8.5274 1.8356 9.17837 2.48638C9.17846 2.48647 9.17858 2.48659 9.17868 2.48669L13.9027 7.21068C13.9648 7.27352 13.9998 7.35827 14 7.44668V14.0007H14Z" fill="#4F4F4F"/>
</g>
<defs>
<clipPath id="clip0_1736_14161">
<rect width="16" height="16" fill="white"/>
</clipPath>
</defs>
</svg>
