<svg width="17" height="16" viewBox="0 0 17 16" fill="none" xmlns="http://www.w3.org/2000/svg">
<path d="M10.1674 8.6662C9.96958 8.6662 9.77624 8.60755 9.61179 8.49767C9.44734 8.38779 9.31917 8.23161 9.24348 8.04888C9.1678 7.86615 9.14799 7.66509 9.18658 7.47111C9.22516 7.27713 9.3204 7.09894 9.46026 6.95909C9.60011 6.81924 9.77829 6.724 9.97227 6.68541C10.1663 6.64683 10.3673 6.66663 10.55 6.74232C10.7328 6.81801 10.889 6.94618 10.9988 7.11063C11.1087 7.27508 11.1674 7.46842 11.1674 7.6662C11.1674 7.93141 11.062 8.18577 10.8745 8.3733C10.6869 8.56084 10.4326 8.6662 10.1674 8.6662ZM16.448 11.8469C16.5366 12.3562 16.5127 12.8787 16.378 13.3778C16.2433 13.877 16.0011 14.3406 15.6684 14.7362C15.3356 15.1319 14.9203 15.4499 14.4517 15.6682C13.983 15.8864 13.4723 15.9995 12.9554 15.9995H10.834C10.5688 15.9995 10.3145 15.8942 10.1269 15.7066C9.93939 15.5191 9.83403 15.2647 9.83403 14.9995V13.8169C9.39853 13.931 8.95086 13.9924 8.5007 13.9995C8.04974 13.9982 7.60111 13.9349 7.16736 13.8115V14.9995C7.16736 15.2647 7.06201 15.5191 6.87447 15.7066C6.68693 15.8942 6.43258 15.9995 6.16736 15.9995H4.04536C3.52845 15.9994 3.01782 15.8862 2.54925 15.668C2.08068 15.4497 1.6655 15.1316 1.33282 14.736C1.00014 14.3403 0.757987 13.8768 0.623342 13.3777C0.488697 12.8786 0.464812 12.3561 0.553362 11.8469L0.820029 10.4975C0.900062 10.0606 1.10852 9.65749 1.41878 9.33962C1.72903 9.02176 2.127 8.8036 2.56185 8.71301C2.99669 8.62242 3.44867 8.66352 3.86004 8.83104C4.27142 8.99857 4.62352 9.28493 4.87136 9.65353C5.60603 10.7329 6.99736 11.9995 8.5007 11.9995C9.4134 11.9524 10.2935 11.6448 11.0369 11.1131C11.7802 10.5815 12.3558 9.84802 12.6954 8.99953C12.7643 8.80448 12.8921 8.63562 13.061 8.51622C13.23 8.39682 13.4318 8.33276 13.6387 8.33286H13.8514C14.0233 8.33147 14.1877 8.26252 14.3092 8.1409C14.4307 8.01928 14.4995 7.85476 14.5007 7.68286C14.5007 7.54471 14.4522 7.41095 14.3636 7.30493C14.275 7.19892 14.152 7.1274 14.016 7.10286C13.8034 7.06416 13.6091 6.95763 13.4621 6.79923C13.3151 6.64083 13.2234 6.43909 13.2007 6.2242C13.0795 5.06301 12.5317 3.98811 11.6635 3.20765C10.7952 2.42719 9.66818 1.99669 8.5007 1.99953C5.16736 1.99953 4.28803 3.96286 3.51403 5.69553L3.4307 5.88153C5.19987 5.63942 6.84905 4.85015 8.14736 3.6242C8.23947 3.52735 8.35005 3.44995 8.47258 3.39656C8.59511 3.34318 8.7271 3.3149 8.86074 3.3134C8.99438 3.3119 9.12697 3.3372 9.25067 3.38781C9.37437 3.43842 9.48667 3.51332 9.58093 3.60807C9.67519 3.70282 9.7495 3.8155 9.79947 3.93946C9.84944 4.06342 9.87405 4.19614 9.87186 4.32978C9.86966 4.46341 9.8407 4.59525 9.78668 4.7175C9.73266 4.83975 9.65469 4.94993 9.55736 5.04153C8.86577 5.72461 8.07343 6.2975 7.20803 6.7402C7.39234 6.81327 7.55088 6.93928 7.66368 7.10233C7.77647 7.26539 7.83846 7.45818 7.84184 7.65642C7.84522 7.85466 7.78982 8.04945 7.68265 8.21625C7.57547 8.38305 7.42131 8.51439 7.23959 8.59369C7.05788 8.673 6.85676 8.69673 6.66158 8.6619C6.4664 8.62706 6.2859 8.53522 6.14284 8.39794C5.99979 8.26067 5.90058 8.08411 5.85772 7.89054C5.81487 7.69696 5.83028 7.49502 5.90203 7.3102C4.46761 7.82591 2.94714 8.05997 1.42403 7.99953C1.20972 7.98489 1.00582 7.90163 0.842519 7.76207C0.679218 7.62252 0.565194 7.43409 0.51733 7.22468C0.469465 7.01527 0.490303 6.79602 0.57676 6.59937C0.663216 6.40273 0.810695 6.23916 0.997362 6.13286C1.29091 5.753 1.52389 5.33 1.68803 4.87886C2.5007 3.0542 3.86936 -0.00046961 8.5007 -0.00046961C10.0518 -0.00412762 11.5562 0.529803 12.758 1.51046C13.9597 2.49111 14.7845 3.85789 15.092 5.3782C15.5159 5.59518 15.8716 5.92489 16.1202 6.33104C16.3687 6.73719 16.5004 7.20404 16.5007 7.6802C16.5 8.23684 16.3221 8.77879 15.9927 9.22753L16.448 11.8469ZM5.16736 12.8089C4.40819 12.2453 3.74884 11.5584 3.2167 10.7769C3.19631 10.7422 3.167 10.7137 3.13182 10.6942C3.09664 10.6747 3.05688 10.6651 3.0167 10.6662C2.96133 10.6677 2.90822 10.6885 2.86658 10.725C2.82494 10.7616 2.79739 10.8115 2.7887 10.8662L2.52203 12.2149C2.48773 12.4351 2.50144 12.6601 2.5622 12.8746C2.62297 13.089 2.72936 13.2878 2.8741 13.4573C3.01883 13.6267 3.19849 13.763 3.40076 13.8565C3.60304 13.9501 3.82315 13.9989 4.04603 13.9995H5.16736V12.8089ZM14.4774 12.1889L14.1854 10.5102C13.6186 11.513 12.8104 12.3583 11.834 12.9695V13.9995H12.9547C13.18 13.9994 13.4026 13.9501 13.6068 13.855C13.8111 13.7598 13.9921 13.6212 14.1371 13.4488C14.2822 13.2764 14.3878 13.0743 14.4466 12.8568C14.5053 12.6393 14.5158 12.4115 14.4774 12.1895V12.1889Z" fill="#4F4F4F"/>
</svg>
