<svg width="16" height="16" viewBox="0 0 16 16" fill="none" xmlns="http://www.w3.org/2000/svg">
<g opacity="0.6" clip-path="url(#clip0_2478_2548)">
<path d="M13.5513 0.505333C13.2999 0.262416 12.9829 0.0982898 12.6395 0.0331452C12.296 -0.0319995 11.9409 0.00467828 11.618 0.138667C11.3299 0.266349 11.086 0.476243 10.9168 0.742023C10.7475 1.0078 10.6605 1.31764 10.6667 1.63267V15C10.6667 15.2652 10.772 15.5196 10.9596 15.7071C11.1471 15.8946 11.4015 16 11.6667 16C11.9319 16 12.1862 15.8946 12.3738 15.7071C12.5613 15.5196 12.6667 15.2652 12.6667 15V13.3447C16.7427 10.256 17.0933 3.90333 13.5513 0.505333ZM12.6667 10.496V2.496C14.3273 4.424 14.4747 8.48133 12.6667 10.496ZM8.66667 1V5C8.66497 5.97446 8.33519 6.91996 7.73047 7.68408C7.12575 8.44821 6.28133 8.98643 5.33333 9.212V15C5.33333 15.2652 5.22798 15.5196 5.04044 15.7071C4.8529 15.8946 4.59855 16 4.33333 16C4.06812 16 3.81376 15.8946 3.62623 15.7071C3.43869 15.5196 3.33333 15.2652 3.33333 15V9.212C2.38534 8.98643 1.54092 8.44821 0.9362 7.68408C0.33148 6.91996 0.00169239 5.97446 0 5L0 1C0 0.734784 0.105357 0.48043 0.292893 0.292893C0.48043 0.105357 0.734784 0 1 0C1.26522 0 1.51957 0.105357 1.70711 0.292893C1.89464 0.48043 2 0.734784 2 1V5C2.00167 5.44005 2.12774 5.87065 2.36367 6.24211C2.59959 6.61357 2.93574 6.91074 3.33333 7.09933V1C3.33333 0.734784 3.43869 0.48043 3.62623 0.292893C3.81376 0.105357 4.06812 0 4.33333 0C4.59855 0 4.8529 0.105357 5.04044 0.292893C5.22798 0.48043 5.33333 0.734784 5.33333 1V7.09933C5.73092 6.91074 6.06708 6.61357 6.303 6.24211C6.53892 5.87065 6.665 5.44005 6.66667 5V1C6.66667 0.734784 6.77202 0.48043 6.95956 0.292893C7.1471 0.105357 7.40145 0 7.66667 0C7.93188 0 8.18624 0.105357 8.37377 0.292893C8.56131 0.48043 8.66667 0.734784 8.66667 1Z" fill="#4F4F4F"/>
</g>
<defs>
<clipPath id="clip0_2478_2548">
<rect width="16" height="16" fill="white"/>
</clipPath>
</defs>
</svg>
