<svg width="17" height="16" viewBox="0 0 17 16" fill="none" xmlns="http://www.w3.org/2000/svg">
<g opacity="0.6" clip-path="url(#clip0_1736_14159)">
<path d="M16.5 6.66667C16.5 6.40145 16.3946 6.1471 16.2071 5.95956C16.0196 5.77202 15.7652 5.66667 15.5 5.66667H14.5213L14.002 3.91333C13.7918 3.23123 13.3856 2.626 12.8341 2.17296C12.2825 1.71992 11.6099 1.43906 10.9 1.36533C10.669 0.952135 10.3321 0.60788 9.92406 0.367932C9.51599 0.127984 9.05139 0.00099169 8.578 0L8.422 0C7.94877 0.000240854 7.48417 0.126627 7.07603 0.366143C6.66789 0.605658 6.33098 0.949642 6.1 1.36267C5.38141 1.43084 4.69925 1.71086 4.14 2.16721C3.58075 2.62356 3.16959 3.23569 2.95867 3.926L2.444 5.66667H1.5C1.23478 5.66667 0.98043 5.77202 0.792893 5.95956C0.605357 6.1471 0.5 6.40145 0.5 6.66667C0.5 6.93188 0.605357 7.18624 0.792893 7.37377C0.98043 7.56131 1.23478 7.66667 1.5 7.66667H1.852L1.534 8.752C1.13779 9.09302 0.838473 9.53245 0.666206 10.026C0.493939 10.5196 0.454811 11.0498 0.552765 11.5633C0.650719 12.0768 0.882294 12.5554 1.22415 12.9509C1.56601 13.3464 2.00608 13.6448 2.5 13.816V14.6667C2.5 15.0203 2.64048 15.3594 2.89052 15.6095C3.14057 15.8595 3.47971 16 3.83333 16C4.18696 16 4.52609 15.8595 4.77614 15.6095C5.02619 15.3594 5.16667 15.0203 5.16667 14.6667V14H11.8333V14.6667C11.8333 15.0203 11.9738 15.3594 12.2239 15.6095C12.4739 15.8595 12.813 16 13.1667 16C13.5203 16 13.8594 15.8595 14.1095 15.6095C14.3595 15.3594 14.5 15.0203 14.5 14.6667V13.816C14.9983 13.6433 15.4417 13.3413 15.7848 12.9407C16.1278 12.5402 16.3582 12.0556 16.4522 11.5367C16.5463 11.0178 16.5006 10.4832 16.3199 9.98779C16.1392 9.49235 15.83 9.05387 15.424 8.71733L15.1133 7.66667H15.5C15.7652 7.66667 16.0196 7.56131 16.2071 7.37377C16.3946 7.18624 16.5 6.93188 16.5 6.66667ZM4.87333 4.50533C4.97766 4.16505 5.18871 3.86738 5.47529 3.65631C5.76187 3.44525 6.10876 3.33201 6.46467 3.33333H10.5C10.854 3.33141 11.1992 3.44304 11.485 3.65183C11.7708 3.86062 11.9822 4.15556 12.088 4.49333L13.126 8H3.83867L4.87333 4.50533ZM13.5 12H3.5C3.23478 12 2.98043 11.8946 2.79289 11.7071C2.60536 11.5196 2.5 11.2652 2.5 11C2.5 10.7348 2.60536 10.4804 2.79289 10.2929C2.98043 10.1054 3.23478 10 3.5 10H3.83333V10.3333C3.83333 10.5985 3.93869 10.8529 4.12623 11.0404C4.31376 11.228 4.56812 11.3333 4.83333 11.3333C5.09855 11.3333 5.3529 11.228 5.54044 11.0404C5.72798 10.8529 5.83333 10.5985 5.83333 10.3333V10H11.1667V10.3333C11.1667 10.5985 11.272 10.8529 11.4596 11.0404C11.6471 11.228 11.9015 11.3333 12.1667 11.3333C12.4319 11.3333 12.6862 11.228 12.8738 11.0404C13.0613 10.8529 13.1667 10.5985 13.1667 10.3333V10H13.5C13.7652 10 14.0196 10.1054 14.2071 10.2929C14.3946 10.4804 14.5 10.7348 14.5 11C14.5 11.2652 14.3946 11.5196 14.2071 11.7071C14.0196 11.8946 13.7652 12 13.5 12Z" fill="#4F4F4F"/>
</g>
<defs>
<clipPath id="clip0_1736_14159">
<rect width="16" height="16" fill="white" transform="translate(0.5)"/>
</clipPath>
</defs>
</svg>
