<svg width="17" height="16" viewBox="0 0 17 16" fill="none" xmlns="http://www.w3.org/2000/svg">
<g opacity="0.6" clip-path="url(#clip0_1736_15640)">
<path d="M16.5 6.33333C16.5016 5.91539 16.3909 5.5047 16.1795 5.14417C15.9681 4.78365 15.6637 4.48652 15.2982 4.28385C14.9326 4.08118 14.5194 3.98041 14.1016 3.99206C13.6838 4.00372 13.2769 4.12737 12.9232 4.3501C12.5696 4.57283 12.2822 4.88646 12.0912 5.25821C11.9002 5.62996 11.8126 6.04618 11.8375 6.46339C11.8624 6.88059 11.9988 7.28345 12.2327 7.62987C12.4665 7.97629 12.7891 8.25355 13.1667 8.43267V10.6667C13.1667 11.5507 12.8155 12.3986 12.1904 13.0237C11.5652 13.6488 10.7174 14 9.83333 14C8.94928 14 8.10143 13.6488 7.47631 13.0237C6.85119 12.3986 6.5 11.5507 6.5 10.6667V10.566C7.6285 10.334 8.64252 9.72002 9.37115 8.82757C10.0998 7.93513 10.4985 6.81877 10.5 5.66667V3.66667C10.4989 2.69453 10.1123 1.76252 9.42489 1.07511C8.73748 0.387707 7.80547 0.00105878 6.83333 0C6.56812 0 6.31376 0.105357 6.12623 0.292893C5.93869 0.48043 5.83333 0.734784 5.83333 1C5.83333 1.26522 5.93869 1.51957 6.12623 1.70711C6.31376 1.89464 6.56812 2 6.83333 2C7.0522 2 7.26893 2.04311 7.47114 2.12687C7.67335 2.21063 7.85708 2.33339 8.01184 2.48816C8.16661 2.64292 8.28938 2.82665 8.37313 3.02886C8.45689 3.23107 8.5 3.4478 8.5 3.66667V5.66667C8.5 6.46232 8.18393 7.22538 7.62132 7.78799C7.05871 8.3506 6.29565 8.66667 5.5 8.66667C4.70435 8.66667 3.94129 8.3506 3.37868 7.78799C2.81607 7.22538 2.5 6.46232 2.5 5.66667V3.66667C2.5 3.22464 2.67559 2.80072 2.98816 2.48816C3.30072 2.17559 3.72464 2 4.16667 2C4.43188 2 4.68624 1.89464 4.87377 1.70711C5.06131 1.51957 5.16667 1.26522 5.16667 1C5.16667 0.734784 5.06131 0.48043 4.87377 0.292893C4.68624 0.105357 4.43188 0 4.16667 0C3.19453 0.00105878 2.26252 0.387707 1.57511 1.07511C0.887707 1.76252 0.501059 2.69453 0.5 3.66667L0.5 5.66667C0.501545 6.81877 0.900228 7.93513 1.62885 8.82757C2.35748 9.72002 3.3715 10.334 4.5 10.566V10.6667C4.5 12.0812 5.0619 13.4377 6.0621 14.4379C7.06229 15.4381 8.41885 16 9.83333 16C11.2478 16 12.6044 15.4381 13.6046 14.4379C14.6048 13.4377 15.1667 12.0812 15.1667 10.6667V8.43267C15.5643 8.24408 15.9004 7.9469 16.1363 7.57544C16.3723 7.20398 16.4983 6.77338 16.5 6.33333Z" fill="#4F4F4F"/>
</g>
<defs>
<clipPath id="clip0_1736_15640">
<rect width="16" height="16" fill="white" transform="translate(0.5)"/>
</clipPath>
</defs>
</svg>
