<svg width="16" height="16" viewBox="0 0 16 16" fill="none" xmlns="http://www.w3.org/2000/svg">
<g opacity="0.6" clip-path="url(#clip0_2671_276)">
<path d="M15.9994 6.58377C16.0344 5.71019 15.8885 4.83881 15.5708 4.02428C15.2532 3.20976 14.7706 2.46967 14.1534 1.85043C13.0546 0.799667 11.6293 0.156563 10.1144 0.028006C8.59951 -0.100551 7.08623 0.293183 5.82608 1.14377C5.47741 0.745666 5.03878 0.436511 4.54663 0.241985C4.05447 0.0474591 3.523 -0.026821 2.99637 0.0253154C2.46975 0.0774518 1.96316 0.2545 1.5187 0.54175C1.07424 0.829001 0.704743 1.21816 0.4409 1.6769C0.177056 2.13564 0.0264863 2.65072 0.00169797 3.17934C-0.0230903 3.70797 0.0786189 4.23487 0.298376 4.71629C0.518133 5.19771 0.849594 5.61974 1.26522 5.94732C1.68085 6.2749 2.16864 6.49858 2.68808 6.59977C2.65483 7.77189 2.89399 8.93574 3.38675 9.99977C3.42102 10.0611 3.43428 10.1319 3.42453 10.2015C3.41479 10.2711 3.38255 10.3356 3.33275 10.3851L0.790084 12.1611V12.1704C0.554234 12.3637 0.362015 12.6048 0.226088 12.8778C0.0901613 13.1508 0.0136111 13.4494 0.00148001 13.7541C-0.010651 14.0588 0.0419124 14.3626 0.155708 14.6456C0.269503 14.9285 0.441948 15.1841 0.661684 15.3955C0.881419 15.6069 1.14346 15.7694 1.43054 15.8722C1.71762 15.9751 2.02323 16.0159 2.32724 15.9921C2.63125 15.9682 2.92676 15.8802 3.1943 15.7339C3.46184 15.5876 3.69534 15.3862 3.87942 15.1431L3.88608 15.1471L5.59942 12.6664C5.6479 12.6108 5.71348 12.5728 5.78587 12.5585C5.85826 12.5441 5.93337 12.5542 5.99942 12.5871C6.92316 13.0573 7.93827 13.3205 8.97408 13.3584C9.2293 13.3602 9.48427 13.3424 9.73675 13.3051C11.3141 13.1766 12.793 12.4861 13.9041 11.3591C15.1878 10.094 15.9377 8.385 15.9994 6.58377ZM1.99942 3.3331C1.99942 3.06939 2.07762 2.81161 2.22412 2.59234C2.37063 2.37308 2.57887 2.20218 2.82251 2.10126C3.06614 2.00034 3.33423 1.97394 3.59287 2.02539C3.85151 2.07683 4.08909 2.20382 4.27556 2.39029C4.46203 2.57676 4.58902 2.81434 4.64046 3.07298C4.69191 3.33162 4.66551 3.59971 4.56459 3.84335C4.46367 4.08698 4.29278 4.29522 4.07351 4.44173C3.85425 4.58824 3.59646 4.66643 3.33275 4.66643C2.97913 4.66643 2.63999 4.52596 2.38994 4.27591C2.13989 4.02586 1.99942 3.68672 1.99942 3.3331ZM10.2514 11.1998L5.16342 6.11377C5.62442 5.81081 6.00302 5.39817 6.26529 4.91286C6.52755 4.42755 6.66526 3.88474 6.66608 3.3331C6.66062 3.22529 6.64971 3.11782 6.63342 3.0111C7.51281 2.31771 8.61148 1.96224 9.73038 2.00908C10.8493 2.05592 11.9144 2.50198 12.7328 3.26643C13.157 3.69264 13.4885 4.20195 13.7064 4.76239C13.9244 5.32282 14.0242 5.92228 13.9994 6.5231C13.9525 7.81443 13.4132 9.03885 12.4921 9.9451C11.8788 10.5667 11.1019 11.0017 10.2514 11.1998Z" fill="#4F4F4F"/>
</g>
<defs>
<clipPath id="clip0_2671_276">
<rect width="16" height="16" fill="white"/>
</clipPath>
</defs>
</svg>
