<svg width="24" height="24" viewBox="0 0 24 24" fill="none" xmlns="http://www.w3.org/2000/svg">
<path d="M13.7612 11.9989L21.6305 4.14129C21.8657 3.90606 21.9979 3.58701 21.9979 3.25434C21.9979 2.92167 21.8657 2.60262 21.6305 2.36739C21.3953 2.13215 21.0763 2 20.7437 2C20.411 2 20.092 2.13215 19.8568 2.36739L12 10.2375L4.14319 2.36739C3.90799 2.13215 3.58897 2 3.25634 2C2.9237 2 2.60469 2.13215 2.36948 2.36739C2.13427 2.60262 2.00213 2.92167 2.00213 3.25434C2.00213 3.58701 2.13427 3.90606 2.36948 4.14129L10.2388 11.9989L2.36948 19.8566C2.2524 19.9727 2.15948 20.1109 2.09606 20.2631C2.03265 20.4153 2 20.5786 2 20.7435C2 20.9084 2.03265 21.0717 2.09606 21.224C2.15948 21.3762 2.2524 21.5143 2.36948 21.6305C2.4856 21.7476 2.62375 21.8405 2.77596 21.9039C2.92818 21.9673 3.09144 22 3.25634 22C3.42123 22 3.5845 21.9673 3.73671 21.9039C3.88892 21.8405 4.02708 21.7476 4.14319 21.6305L12 13.7603L19.8568 21.6305C19.9729 21.7476 20.1111 21.8405 20.2633 21.9039C20.4155 21.9673 20.5788 22 20.7437 22C20.9086 22 21.0718 21.9673 21.224 21.9039C21.3762 21.8405 21.5144 21.7476 21.6305 21.6305C21.7476 21.5143 21.8405 21.3762 21.9039 21.224C21.9674 21.0717 22 20.9084 22 20.7435C22 20.5786 21.9674 20.4153 21.9039 20.2631C21.8405 20.1109 21.7476 19.9727 21.6305 19.8566L13.7612 11.9989Z" fill="#333333"/>
</svg>
