<svg width="18" height="18" viewBox="0 0 18 18" fill="none" xmlns="http://www.w3.org/2000/svg">
<g clip-path="url(#clip0_2467_4007)">
<path d="M16.0575 8.5575L9.435 1.935C9.1575 1.6575 8.775 1.5 8.3775 1.5H3C2.175 1.5 1.5 2.175 1.5 3V8.3775C1.5 8.775 1.6575 9.1575 1.9425 9.435L8.565 16.0575C9.15 16.6425 10.1025 16.6425 10.6875 16.0575L16.065 10.68C16.65 10.095 16.65 9.15 16.0575 8.5575ZM4.875 6C4.2525 6 3.75 5.4975 3.75 4.875C3.75 4.2525 4.2525 3.75 4.875 3.75C5.4975 3.75 6 4.2525 6 4.875C6 5.4975 5.4975 6 4.875 6Z" fill="#9B51E0"/>
<path d="M8.50825 10.7896C8.26186 11.036 7.98058 11.1579 7.66441 11.1553C7.34837 11.1464 7.05549 11.0071 6.78576 10.7374C6.51604 10.4677 6.37828 10.1764 6.3725 9.86338C6.36684 9.54414 6.48721 9.26133 6.7336 9.01494C6.97999 8.76855 7.2612 8.64978 7.57724 8.65864C7.89021 8.66443 8.18156 8.80218 8.45128 9.0719C8.721 9.34163 8.86029 9.63451 8.86915 9.95055C8.87494 10.2635 8.75464 10.5432 8.50825 10.7896ZM8.77188 7.05022L9.34305 6.47904L10.267 11.9916L9.69587 12.5628L8.77188 7.05022ZM8.13125 10.4126C8.24004 10.3038 8.28193 10.1761 8.25691 10.0295C8.23508 9.87965 8.13988 9.72046 7.97131 9.55188C7.80273 9.3833 7.64353 9.2881 7.49371 9.26628C7.3471 9.24126 7.21939 9.28314 7.1106 9.39194C7.005 9.49753 6.96465 9.62677 6.98954 9.77965C7.01136 9.92947 7.10503 10.0871 7.27054 10.2526C7.43605 10.4182 7.59525 10.5134 7.74813 10.5382C7.89795 10.5601 8.02565 10.5182 8.13125 10.4126ZM12.3053 10.0269C12.1453 10.1869 11.9661 10.2956 11.7676 10.3531C11.5692 10.4044 11.3674 10.3977 11.1622 10.3333C10.9569 10.2688 10.7654 10.1477 10.5876 9.96992C10.4099 9.79215 10.2888 9.60064 10.2243 9.39538C10.1598 9.19012 10.1547 8.98985 10.209 8.79456C10.2635 8.593 10.3707 8.41223 10.5307 8.25224C10.7771 8.00585 11.0583 7.88708 11.3743 7.89594C11.6905 7.89853 11.9834 8.03468 12.2532 8.3044C12.5229 8.57413 12.6606 8.86861 12.6662 9.18785C12.672 9.50082 12.5517 9.7805 12.3053 10.0269ZM11.9283 9.64989C12.0371 9.5411 12.079 9.41339 12.054 9.26677C12.0291 9.11389 11.9339 8.95469 11.7684 8.78918C11.6029 8.62367 11.4452 8.53 11.2954 8.50818C11.1457 8.48009 11.0165 8.52044 10.9077 8.62924C10.8021 8.73483 10.7602 8.86254 10.782 9.01235C10.8038 9.16217 10.899 9.32137 11.0676 9.48995C11.2362 9.65852 11.3954 9.75372 11.5452 9.77555C11.695 9.79737 11.8227 9.75549 11.9283 9.64989Z" fill="#9B51E0"/>
</g>
<defs>
<clipPath id="clip0_2467_4007">
<rect width="18" height="18" fill="white"/>
</clipPath>
</defs>
</svg>
