<svg width="36" height="36" viewBox="0 0 36 36" fill="none" xmlns="http://www.w3.org/2000/svg">
<path d="M14.0542 5.84783C10.9222 6.92063 8.25102 9.26783 6.76782 12.227C6.24942 13.2494 5.87502 14.3366 5.65182 15.4598C5.08302 18.2534 5.47902 21.227 6.76782 23.7758C7.60302 25.439 8.80542 26.915 10.2598 28.067C11.635 29.1614 13.2334 29.9678 14.9326 30.4214C17.071 30.9974 19.3534 30.983 21.5134 30.4934C23.4646 30.047 25.3078 29.111 26.7766 27.7574C28.3318 26.3246 29.4406 24.4454 30.031 22.4222C30.6718 20.2118 30.7582 17.8574 30.355 15.5966C26.323 15.5966 22.291 15.5966 18.2518 15.5966C18.2518 17.267 18.2518 18.9446 18.2518 20.615C20.5846 20.615 22.9246 20.615 25.2574 20.615C24.9838 22.2206 24.0334 23.6822 22.6798 24.5894C21.8302 25.1582 20.8582 25.5326 19.8502 25.7054C18.835 25.8782 17.791 25.8998 16.783 25.6982C15.7534 25.4966 14.7742 25.0646 13.9174 24.4598C12.5494 23.5022 11.5054 22.091 10.9726 20.5142C10.4254 18.9086 10.4182 17.1158 10.9726 15.5102C11.3542 14.3798 11.995 13.3286 12.8374 12.479C13.8742 11.4134 15.2206 10.6574 16.675 10.3478C17.9206 10.0814 19.231 10.1318 20.4478 10.499C21.4846 10.8158 22.435 11.3774 23.2198 12.1262C24.0118 11.3414 24.7966 10.5494 25.5886 9.76463C25.999 9.33983 26.4382 8.93663 26.8414 8.49743C25.6462 7.38863 24.235 6.49583 22.7014 5.93423C19.951 4.90463 16.8334 4.88303 14.0542 5.84783Z" fill="white"/>
<path d="M14.0526 5.84866C16.8318 4.88386 19.9494 4.90546 22.7142 5.92786C24.2478 6.48946 25.6518 7.38226 26.8542 8.49106C26.451 8.92306 26.019 9.33346 25.6014 9.75826C24.8094 10.5431 24.0246 11.3351 23.2326 12.1199C22.4478 11.3711 21.4974 10.8023 20.4606 10.4927C19.2438 10.1255 17.9334 10.0751 16.6878 10.3415C15.2334 10.6511 13.887 11.4143 12.8502 12.4727C12.0078 13.3223 11.367 14.3735 10.9854 15.5039C9.58144 14.4167 8.17744 13.3223 6.77344 12.2351C8.24944 9.26866 10.9206 6.92146 14.0526 5.84866Z" fill="#E94435"/>
<path d="M5.65182 15.4594C5.87502 14.3362 6.25662 13.249 6.76782 12.2266C8.17182 13.3138 9.57582 14.4082 10.9798 15.4954C10.4254 17.101 10.4326 18.8938 10.9798 20.4994C9.57582 21.5866 8.17182 22.681 6.76782 23.7682C5.47902 21.2338 5.08302 18.253 5.65182 15.4594Z" fill="#F8BB15"/>
<path d="M18.259 15.5898C22.291 15.5898 26.323 15.5898 30.3622 15.5898C30.7654 17.8506 30.679 20.205 30.0382 22.4154C29.4478 24.4386 28.339 26.325 26.7838 27.7506C25.423 26.6922 24.055 25.6338 22.7014 24.5754C24.055 23.6754 25.0054 22.2066 25.279 20.601C22.9462 20.601 20.6062 20.601 18.2734 20.601C18.2518 18.9378 18.259 17.2674 18.259 15.5898Z" fill="#547DBE"/>
<path d="M6.76953 23.7766C8.17353 22.6894 9.57753 21.595 10.9815 20.5078C11.5143 22.0918 12.5583 23.4958 13.9263 24.4534C14.7831 25.0582 15.7623 25.483 16.7919 25.6918C17.7999 25.8934 18.8511 25.8718 19.8591 25.699C20.8671 25.5262 21.8391 25.1518 22.6887 24.583C24.0495 25.6414 25.4175 26.6998 26.7711 27.7582C25.3023 29.119 23.4591 30.0478 21.5079 30.4942C19.3551 30.9838 17.0727 30.9982 14.9271 30.4222C13.2279 29.9686 11.6295 29.1622 10.2543 28.0678C8.80713 26.9086 7.60473 25.4326 6.76953 23.7766Z" fill="#34A751"/>
</svg>
