<svg width="124" height="24" viewBox="0 0 124 24" fill="none" xmlns="http://www.w3.org/2000/svg">
<path d="M30.6207 0.28647L24.4775 17.5385H18.6207L15.374 8.14854L12 17.5385H6.14324L0 0.28647H5.72944L9.2626 10.7268L12.9231 0.28647H18.0796L21.6446 10.8223L25.305 0.28647H30.6207Z" fill="#00B956"/>
<path d="M49.6363 8.9443C49.6363 8.98674 49.6044 9.48541 49.5408 10.4403H36.9997C37.2543 11.3316 37.7424 12.0212 38.4639 12.5093C39.2066 12.9761 40.1296 13.2095 41.2331 13.2095C42.0607 13.2095 42.7716 13.0928 43.3657 12.8594C43.9811 12.626 44.5965 12.244 45.2119 11.7135L48.3949 15.0239C46.7185 16.8912 44.2676 17.8249 41.0421 17.8249C39.0262 17.8249 37.2543 17.443 35.7265 16.679C34.1986 15.9151 33.0103 14.8541 32.1615 13.496C31.3339 12.1379 30.9201 10.5995 30.9201 8.88064C30.9201 7.18302 31.3233 5.66578 32.1296 4.32891C32.9572 2.97082 34.0925 1.90981 35.5355 1.14589C36.9784 0.381962 38.6018 0 40.4055 0C42.1243 0 43.684 0.360742 45.0845 1.08223C46.4851 1.78249 47.5885 2.81167 48.3949 4.16976C49.2225 5.50663 49.6363 7.09814 49.6363 8.9443ZM40.4373 4.29708C39.5036 4.29708 38.7185 4.56233 38.0819 5.09284C37.4665 5.62334 37.0739 6.34483 36.9042 7.25729H43.9705C43.8007 6.34483 43.3975 5.62334 42.7609 5.09284C42.1456 4.56233 41.371 4.29708 40.4373 4.29708Z" fill="#00B956"/>
<path d="M74.8968 0C77.0188 0 78.7058 0.636604 79.9578 1.90981C81.231 3.18302 81.8676 5.10345 81.8676 7.67109V17.5385H75.8199V8.65782C75.8199 7.44828 75.5865 6.55703 75.1196 5.98408C74.674 5.41114 74.0374 5.12467 73.2098 5.12467C72.2973 5.12467 71.5652 5.44297 71.0135 6.07958C70.4618 6.71618 70.1859 7.6817 70.1859 8.97613V17.5385H64.1382V8.65782C64.1382 6.30239 63.2682 5.12467 61.5281 5.12467C60.5944 5.12467 59.8517 5.44297 59.3 6.07958C58.7483 6.71618 58.4724 7.6817 58.4724 8.97613V17.5385H52.4247V0.28647H58.1859V2.1008C58.8225 1.40053 59.5758 0.880636 60.4459 0.541113C61.3371 0.180371 62.3026 0 63.3424 0C64.552 0 65.6342 0.222811 66.5891 0.668434C67.544 1.11406 68.3186 1.7931 68.9127 2.70557C69.5918 1.83554 70.4512 1.16711 71.491 0.700264C72.5308 0.233421 73.666 0 74.8968 0Z" fill="#00B956"/>
<path d="M93.0376 0C95.9023 0 98.0879 0.657825 99.5946 1.97347C101.101 3.2679 101.855 5.2626 101.855 7.95756V17.5385H96.2206V15.3103C95.3505 16.9867 93.6529 17.8249 91.1277 17.8249C89.7909 17.8249 88.6344 17.5915 87.6582 17.1247C86.6821 16.6578 85.9394 16.0318 85.4301 15.2467C84.9421 14.4403 84.698 13.5279 84.698 12.5093C84.698 10.8753 85.324 9.61273 86.576 8.72149C87.828 7.80902 89.759 7.35278 92.3691 7.35278H95.8068C95.7007 5.52785 94.4805 4.61538 92.1463 4.61538C91.3187 4.61538 90.4805 4.75331 89.6317 5.02918C88.7829 5.28382 88.0614 5.64456 87.4673 6.1114L85.4301 2.0053C86.385 1.3687 87.5415 0.880636 88.8996 0.541113C90.2789 0.180371 91.6582 0 93.0376 0ZM92.8147 14.0053C93.515 14.0053 94.1304 13.8355 94.6609 13.496C95.1914 13.1565 95.5734 12.6578 95.8068 12V10.504H93.1967C91.4354 10.504 90.5548 11.0875 90.5548 12.2546C90.5548 12.7851 90.7564 13.2095 91.1596 13.5279C91.5628 13.8462 92.1145 14.0053 92.8147 14.0053Z" fill="#00B956"/>
<path d="M123.536 0.28647L116.088 18.2387C115.218 20.3607 114.157 21.8462 112.905 22.695C111.653 23.565 110.125 24 108.321 24C107.409 24 106.486 23.8515 105.552 23.5544C104.64 23.2785 103.897 22.9072 103.324 22.4403L105.425 18.2069C105.764 18.5252 106.167 18.7692 106.634 18.939C107.122 19.13 107.61 19.2255 108.098 19.2255C108.671 19.2255 109.138 19.1088 109.499 18.8753C109.881 18.6419 110.199 18.2706 110.454 17.7613L103.069 0.28647H109.276L113.51 10.8223L117.775 0.28647H123.536Z" fill="#00B956"/>
</svg>
