<svg width="17" height="17" viewBox="0 0 17 17" fill="none" xmlns="http://www.w3.org/2000/svg">
<g clip-path="url(#clip0_2537_1333)">
<path d="M8.5 16.5C8.5 16.5 14.5 10.814 14.5 6.5C14.5 4.9087 13.8679 3.38258 12.7426 2.25736C11.6174 1.13214 10.0913 0.5 8.5 0.5C6.9087 0.5 5.38258 1.13214 4.25736 2.25736C3.13214 3.38258 2.5 4.9087 2.5 6.5C2.5 10.814 8.5 16.5 8.5 16.5ZM8.5 9.5C7.70435 9.5 6.94129 9.18393 6.37868 8.62132C5.81607 8.05871 5.5 7.29565 5.5 6.5C5.5 5.70435 5.81607 4.94129 6.37868 4.37868C6.94129 3.81607 7.70435 3.5 8.5 3.5C9.29565 3.5 10.0587 3.81607 10.6213 4.37868C11.1839 4.94129 11.5 5.70435 11.5 6.5C11.5 7.29565 11.1839 8.05871 10.6213 8.62132C10.0587 9.18393 9.29565 9.5 8.5 9.5Z" fill="#333333"/>
</g>
<defs>
<clipPath id="clip0_2537_1333">
<rect width="16" height="16" fill="white" transform="translate(0.5 0.5)"/>
</clipPath>
</defs>
</svg>
