<svg width="32" height="33" viewBox="0 0 32 33" fill="none" xmlns="http://www.w3.org/2000/svg">
<path d="M26.6667 15.1667H5.33333C4.53333 15.1667 4 15.7 4 16.5C4 17.3 4.53333 17.8333 5.33333 17.8333H26.6667C27.4667 17.8333 28 17.3 28 16.5C28 15.7 27.4667 15.1667 26.6667 15.1667ZM5.33333 11.1667H26.6667C27.4667 11.1667 28 10.6333 28 9.83333C28 9.03333 27.4667 8.5 26.6667 8.5H5.33333C4.53333 8.5 4 9.03333 4 9.83333C4 10.6333 4.53333 11.1667 5.33333 11.1667ZM26.6667 21.8333H5.33333C4.53333 21.8333 4 22.3667 4 23.1667C4 23.9667 4.53333 24.5 5.33333 24.5H26.6667C27.4667 24.5 28 23.9667 28 23.1667C28 22.3667 27.4667 21.8333 26.6667 21.8333Z" fill="#333333"/>
</svg>
