<svg width="40" height="40" viewBox="0 0 40 40" fill="none" xmlns="http://www.w3.org/2000/svg">
<rect width="40" height="40" rx="12" fill="url(#paint0_linear_2537_2481)"/>
<g opacity="0.25" filter="url(#filter0_f_2537_2481)">
<rect x="6.02539" y="20" width="27.2489" height="17.0306" rx="8.51528" fill="url(#paint1_linear_2537_2481)"/>
</g>
<rect x="6" y="6" width="28" height="28" rx="12" fill="url(#paint2_linear_2537_2481)"/>
<g filter="url(#filter1_i_2537_2481)">
<path d="M12.9809 19.0264C12.9809 19.0264 20.0574 15.8881 22.5116 14.783C23.4524 14.341 26.6429 12.9265 26.6429 12.9265C26.6429 12.9265 28.1155 12.3077 27.9927 13.8105C27.9518 14.4294 27.6246 16.5953 27.2974 18.938C26.8065 22.2532 26.2747 25.8777 26.2747 25.8777C26.2747 25.8777 26.1929 26.8944 25.4976 27.0712C24.8022 27.248 23.6569 26.4524 23.4524 26.2755C23.2887 26.143 20.3846 24.1538 19.3211 23.1814C19.0347 22.9162 18.7075 22.3858 19.3619 21.7669C20.8345 20.3083 22.5934 18.496 23.6569 17.3467C24.1477 16.8163 24.6386 15.5786 22.5934 17.0815C19.6892 19.2474 16.8259 21.2807 16.8259 21.2807C16.8259 21.2807 16.1714 21.7227 14.9443 21.3249C13.7172 20.9271 12.2855 20.3967 12.2855 20.3967C12.2855 20.3967 11.3039 19.7336 12.9809 19.0264Z" fill="white"/>
</g>
<defs>
<filter id="filter0_f_2537_2481" x="3.84139" y="17.816" width="31.616" height="21.3988" filterUnits="userSpaceOnUse" color-interpolation-filters="sRGB">
<feFlood flood-opacity="0" result="BackgroundImageFix"/>
<feBlend mode="normal" in="SourceGraphic" in2="BackgroundImageFix" result="shape"/>
<feGaussianBlur stdDeviation="1.092" result="effect1_foregroundBlur_2537_2481"/>
</filter>
<filter id="filter1_i_2537_2481" x="10.8008" y="10.7998" width="18" height="18.2" filterUnits="userSpaceOnUse" color-interpolation-filters="sRGB">
<feFlood flood-opacity="0" result="BackgroundImageFix"/>
<feBlend mode="normal" in="SourceGraphic" in2="BackgroundImageFix" result="shape"/>
<feColorMatrix in="SourceAlpha" type="matrix" values="0 0 0 0 0 0 0 0 0 0 0 0 0 0 0 0 0 0 127 0" result="hardAlpha"/>
<feOffset dy="0.2"/>
<feGaussianBlur stdDeviation="0.5"/>
<feComposite in2="hardAlpha" operator="arithmetic" k2="-1" k3="1"/>
<feColorMatrix type="matrix" values="0 0 0 0 0 0 0 0 0 0 0 0 0 0 0 0 0 0 0.1 0"/>
<feBlend mode="normal" in2="shape" result="effect1_innerShadow_2537_2481"/>
</filter>
<linearGradient id="paint0_linear_2537_2481" x1="3.36245" y1="2.62009" x2="33.0568" y2="40" gradientUnits="userSpaceOnUse">
<stop stop-color="#FBFBFC"/>
<stop offset="1" stop-color="#DBDDE8"/>
</linearGradient>
<linearGradient id="paint1_linear_2537_2481" x1="8.42539" y1="21.2692" x2="20.7609" y2="42.6106" gradientUnits="userSpaceOnUse">
<stop stop-color="#0088CC"/>
<stop offset="1" stop-color="#0083C5"/>
</linearGradient>
<linearGradient id="paint2_linear_2537_2481" x1="8.46615" y1="8.08675" x2="31.7998" y2="33.3174" gradientUnits="userSpaceOnUse">
<stop stop-color="#0088CC"/>
<stop offset="1" stop-color="#0083C5"/>
</linearGradient>
</defs>
</svg>
