<svg width="40" height="40" viewBox="0 0 40 40" fill="none" xmlns="http://www.w3.org/2000/svg">
<rect width="40" height="40" rx="12" fill="url(#paint0_linear_2537_2475)"/>
<g opacity="0.25" filter="url(#filter0_f_2537_2475)">
<rect x="6.02734" y="20" width="27.2489" height="17.0306" rx="8.51528" fill="url(#paint1_linear_2537_2475)"/>
</g>
<rect x="6" y="6" width="28" height="28" rx="12" fill="url(#paint2_linear_2537_2475)"/>
<rect x="6" y="6" width="28" height="28" rx="12" fill="url(#paint3_radial_2537_2475)"/>
<path d="M17.1566 20.2342C17.1566 18.5343 18.5343 17.1559 20.2342 17.1559C21.9341 17.1559 23.3125 18.5343 23.3125 20.2342C23.3125 21.9341 21.9341 23.3125 20.2342 23.3125C18.5343 23.3125 17.1566 21.9341 17.1566 20.2342ZM15.4925 20.2342C15.4925 22.853 17.6154 24.9758 20.2342 24.9758C22.853 24.9758 24.9758 22.853 24.9758 20.2342C24.9758 17.6154 22.853 15.4925 20.2342 15.4925C17.6154 15.4925 15.4926 17.6152 15.4926 20.2342M24.0555 15.3045C24.0554 15.5237 24.1203 15.738 24.242 15.9202C24.3637 16.1025 24.5367 16.2446 24.7391 16.3285C24.9416 16.4125 25.1644 16.4345 25.3793 16.3919C25.5943 16.3492 25.7918 16.2437 25.9468 16.0888C26.1019 15.9339 26.2075 15.7365 26.2503 15.5216C26.2932 15.3066 26.2713 15.0838 26.1875 14.8813C26.1037 14.6788 25.9618 14.5057 25.7796 14.3839C25.5974 14.262 25.3832 14.197 25.164 14.1969H25.1636C24.8698 14.197 24.5881 14.3137 24.3804 14.5214C24.1726 14.7291 24.0557 15.0108 24.0555 15.3045ZM16.5036 27.7506C15.6033 27.7096 15.1139 27.5597 14.7887 27.433C14.3576 27.2651 14.05 27.0652 13.7266 26.7423C13.4032 26.4193 13.203 26.112 13.0359 25.6808C12.9091 25.3558 12.7591 24.8663 12.7182 23.966C12.6735 22.9927 12.6645 22.7003 12.6645 20.2343C12.6645 17.7683 12.6742 17.4768 12.7182 16.5026C12.7592 15.6023 12.9103 15.1138 13.0359 14.7878C13.2037 14.3567 13.4036 14.049 13.7266 13.7256C14.0496 13.4022 14.3569 13.202 14.7887 13.0349C15.1138 12.9081 15.6033 12.7582 16.5036 12.7173C17.4769 12.6725 17.7693 12.6636 20.2342 12.6636C22.699 12.6636 22.9917 12.6731 23.9659 12.7174C24.8662 12.7584 25.3547 12.9095 25.6807 13.0351C26.1118 13.2022 26.4194 13.4028 26.7429 13.7258C27.0663 14.0488 27.2657 14.3568 27.4336 14.7879C27.5603 15.113 27.7103 15.6025 27.7512 16.5028C27.796 17.4769 27.8049 17.7685 27.8049 20.2345C27.8049 22.7004 27.796 22.992 27.7512 23.9662C27.7102 24.8665 27.5595 25.3558 27.4336 25.681C27.2657 26.1121 27.0658 26.4197 26.7429 26.7424C26.4199 27.0651 26.1118 27.2653 25.6807 27.4331C25.3557 27.5599 24.8662 27.7099 23.9659 27.7508C22.9925 27.7955 22.7001 27.8045 20.2342 27.8045C17.7682 27.8045 17.4766 27.7955 16.5036 27.7508M16.4271 11.0559C15.4441 11.1007 14.7723 11.2566 14.1857 11.4848C13.5785 11.7206 13.0639 12.0368 12.5499 12.5499C12.036 13.0631 11.7206 13.5778 11.4848 14.1857C11.2566 14.7727 11.1007 15.4441 11.0559 16.4271C11.0104 17.4117 11 17.7265 11 20.2342C11 22.7419 11.0104 23.0566 11.0559 24.0412C11.1007 25.0243 11.2566 25.6956 11.4848 26.2826C11.7206 26.8898 12.0361 27.4055 12.5499 27.9184C13.0638 28.4313 13.5778 28.7471 14.1857 28.9835C14.7735 29.2118 15.4441 29.3676 16.4271 29.4124C17.4122 29.4572 17.7265 29.4683 20.2342 29.4683C22.7419 29.4683 23.0566 29.4579 24.0412 29.4124C25.0243 29.3676 25.6956 29.2118 26.2826 28.9835C26.8898 28.7471 27.4045 28.4315 27.9184 27.9184C28.4323 27.4053 28.7471 26.8898 28.9835 26.2826C29.2118 25.6956 29.3684 25.0243 29.4124 24.0412C29.4572 23.0559 29.4676 22.7419 29.4676 20.2342C29.4676 17.7265 29.4572 17.4117 29.4124 16.4271C29.3676 15.444 29.2118 14.7723 28.9835 14.1857C28.7471 13.5785 28.4315 13.0639 27.9184 12.5499C27.4053 12.036 26.8898 11.7206 26.2834 11.4848C25.6956 11.2566 25.0243 11.1 24.042 11.0559C23.0572 11.0109 22.7426 11 20.2353 11C17.7279 11 17.4126 11.0104 16.4275 11.0559" fill="white"/>
<defs>
<filter id="filter0_f_2537_2475" x="3.84334" y="17.816" width="31.616" height="21.3988" filterUnits="userSpaceOnUse" color-interpolation-filters="sRGB">
<feFlood flood-opacity="0" result="BackgroundImageFix"/>
<feBlend mode="normal" in="SourceGraphic" in2="BackgroundImageFix" result="shape"/>
<feGaussianBlur stdDeviation="1.092" result="effect1_foregroundBlur_2537_2475"/>
</filter>
<linearGradient id="paint0_linear_2537_2475" x1="3.36245" y1="2.62009" x2="33.0568" y2="40" gradientUnits="userSpaceOnUse">
<stop stop-color="#FBFBFC"/>
<stop offset="1" stop-color="#DBDDE8"/>
</linearGradient>
<linearGradient id="paint1_linear_2537_2475" x1="21.535" y1="37.5385" x2="15.9808" y2="17.9617" gradientUnits="userSpaceOnUse">
<stop stop-color="#A83B95"/>
<stop offset="1" stop-color="#F98C23"/>
</linearGradient>
<linearGradient id="paint2_linear_2537_2475" x1="35" y1="8.5" x2="10" y2="32.5" gradientUnits="userSpaceOnUse">
<stop offset="0.111662" stop-color="#D82D7E"/>
<stop offset="1" stop-color="#FA8F21"/>
</linearGradient>
<radialGradient id="paint3_radial_2537_2475" cx="0" cy="0" r="1" gradientUnits="userSpaceOnUse" gradientTransform="translate(25.3946 32.4875) scale(31.284)">
<stop offset="0.64" stop-color="#8C3AAA" stop-opacity="0"/>
<stop offset="1" stop-color="#8C3AAA"/>
</radialGradient>
</defs>
</svg>
