<svg width="25" height="24" viewBox="0 0 25 24" fill="none" xmlns="http://www.w3.org/2000/svg">
<g clip-path="url(#clip0_2537_4000)">
<path d="M7.35238 23.4374C6.58918 23.434 5.84667 23.189 5.23138 22.7374C4.60259 22.2951 4.13339 21.6616 3.89358 20.9312C3.65376 20.2007 3.65615 19.4124 3.90038 18.6834L5.07038 15.0644L1.99038 12.8124C1.37282 12.3612 0.913799 11.7263 0.678982 10.9984C0.444166 10.2705 0.44559 9.48697 0.68305 8.75994C0.920511 8.03292 1.38184 7.39962 2.00103 6.95067C2.62023 6.50172 3.36555 6.26011 4.13038 6.26042H7.90038L9.04538 2.69042C9.28037 1.95936 9.74133 1.32174 10.3619 0.869401C10.9824 0.417061 11.7305 0.17334 12.4984 0.17334C13.2663 0.17334 14.0144 0.417061 14.6349 0.869401C15.2554 1.32174 15.7164 1.95936 15.9514 2.69042L17.1004 6.26042H20.8704C21.6351 6.26032 22.3803 6.50208 22.9993 6.95111C23.6184 7.40014 24.0795 8.03344 24.3169 8.76042C24.5542 9.4874 24.5555 10.2708 24.3207 10.9986C24.0859 11.7264 23.6269 12.3613 23.0094 12.8124L19.9304 15.0644L21.1004 18.6834C21.3363 19.4134 21.3345 20.1995 21.0954 20.9284C20.8564 21.6574 20.3922 22.2917 19.7698 22.7402C19.1473 23.1887 18.3987 23.4282 17.6315 23.4243C16.8644 23.4204 16.1182 23.1732 15.5004 22.7184L12.5004 20.5124L9.50038 22.7194C8.87964 23.1824 8.12676 23.4341 7.35238 23.4374ZM4.13038 9.26042C3.99839 9.26041 3.86976 9.30212 3.7629 9.37959C3.65603 9.45706 3.57638 9.56633 3.53534 9.69178C3.4943 9.81723 3.49397 9.95245 3.53438 10.0781C3.5748 10.2038 3.6539 10.3134 3.76038 10.3914L7.71638 13.2824C7.97111 13.4687 8.16062 13.7305 8.25793 14.0307C8.35524 14.3309 8.3554 14.6541 8.25838 14.9544L6.75838 19.6044C6.71676 19.7306 6.71633 19.8667 6.75716 19.993C6.798 20.1194 6.87797 20.2296 6.98553 20.3075C7.09308 20.3854 7.22263 20.4271 7.35546 20.4266C7.48828 20.426 7.61748 20.3833 7.72438 20.3044L11.6134 17.4434C11.871 17.2538 12.1825 17.1516 12.5024 17.1516C12.8222 17.1516 13.1337 17.2538 13.3914 17.4434L17.2804 20.3034C17.3871 20.383 17.5165 20.4264 17.6497 20.4273C17.7828 20.4282 17.9128 20.3865 18.0206 20.3084C18.1284 20.2303 18.2085 20.1197 18.2491 19.9929C18.2897 19.8661 18.2887 19.7297 18.2464 19.6034L16.7464 14.9534C16.6494 14.6531 16.6495 14.3299 16.7468 14.0297C16.8441 13.7295 17.0336 13.4677 17.2884 13.2814L21.2434 10.3904C21.3498 10.3125 21.4289 10.2029 21.4693 10.0773C21.5097 9.95178 21.5095 9.81666 21.4686 9.69126C21.4277 9.56585 21.3482 9.45658 21.2415 9.37903C21.1348 9.30148 21.0063 9.25962 20.8744 9.25942H16.0004C15.6827 9.25934 15.3732 9.1584 15.1166 8.97113C14.8599 8.78386 14.6694 8.51995 14.5724 8.21742L13.1004 3.60642C13.0598 3.48022 12.9803 3.37015 12.8732 3.29206C12.7661 3.21397 12.6369 3.17189 12.5044 3.17189C12.3718 3.17189 12.2427 3.21397 12.1356 3.29206C12.0285 3.37015 11.9489 3.48022 11.9084 3.60642L10.4254 8.21842C10.3285 8.52046 10.1384 8.78403 9.8824 8.97125C9.62636 9.15847 9.31757 9.25971 9.00038 9.26042H4.13038Z" fill="white"/>
</g>
<defs>
<clipPath id="clip0_2537_4000">
<rect width="24" height="24" fill="white" transform="translate(0.5)"/>
</clipPath>
</defs>
</svg>
