<svg width="124" height="24" viewBox="0 0 124 24" fill="none" xmlns="http://www.w3.org/2000/svg">
<path d="M30.7357 0.28647L24.5694 17.5385H18.6906L15.4317 8.14854L12.0451 17.5385H6.1663L0 0.28647H5.75096L9.29738 10.7268L12.9716 0.28647H18.1475L21.7258 10.8223L25.4001 0.28647H30.7357Z" fill="#00B956"/>
<path d="M49.8227 8.9443C49.8227 8.98674 49.7907 9.48541 49.7268 10.4403H37.1386C37.3942 11.3316 37.8841 12.0212 38.6083 12.5093C39.3538 12.9761 40.2803 13.2095 41.3879 13.2095C42.2186 13.2095 42.9322 13.0928 43.5285 12.8594C44.1462 12.626 44.7639 12.244 45.3816 11.7135L48.5766 15.0239C46.8939 16.8912 44.4338 17.8249 41.1962 17.8249C39.1727 17.8249 37.3942 17.443 35.8606 16.679C34.327 15.9151 33.1342 14.8541 32.2822 13.496C31.4515 12.1379 31.0362 10.5995 31.0362 8.88064C31.0362 7.18302 31.4409 5.66578 32.2503 4.32891C33.081 2.97082 34.2205 1.90981 35.6689 1.14589C37.1173 0.381962 38.7467 0 40.5572 0C42.2825 0 43.848 0.360743 45.2538 1.08223C46.6596 1.78249 47.7672 2.81167 48.5766 4.16976C49.4073 5.50663 49.8227 7.09814 49.8227 8.9443ZM40.5892 4.29708C39.652 4.29708 38.8639 4.56233 38.2249 5.09284C37.6072 5.62334 37.2131 6.34483 37.0427 7.25729H44.1356C43.9652 6.34483 43.5605 5.62334 42.9215 5.09284C42.3038 4.56233 41.5264 4.29708 40.5892 4.29708Z" fill="#00B956"/>
<path d="M75.178 0C77.308 0 79.0014 0.636605 80.258 1.90981C81.536 3.18302 82.175 5.10345 82.175 7.67109V17.5385H76.1046V8.65782C76.1046 7.44828 75.8703 6.55703 75.4017 5.98408C74.9544 5.41114 74.3154 5.12467 73.4847 5.12467C72.5688 5.12467 71.834 5.44297 71.2802 6.07958C70.7264 6.71618 70.4495 7.6817 70.4495 8.97613V17.5385H64.379V8.65782C64.379 6.30239 63.5057 5.12467 61.7591 5.12467C60.8219 5.12467 60.0764 5.44297 59.5226 6.07958C58.9688 6.71618 58.692 7.6817 58.692 8.97613V17.5385H52.6215V0.28647H58.4044V2.1008C59.0434 1.40053 59.7995 0.880636 60.6728 0.541113C61.5674 0.180371 62.5366 0 63.5803 0C64.7944 0 65.8807 0.222811 66.8391 0.668434C67.7976 1.11406 68.5751 1.7931 69.1715 2.70557C69.8531 1.83554 70.7157 1.16711 71.7594 0.700264C72.8031 0.233421 73.9426 0 75.178 0Z" fill="#00B956"/>
<path d="M93.3869 0C96.2624 0 98.4562 0.657825 99.9685 1.97347C101.481 3.2679 102.237 5.2626 102.237 7.95756V17.5385H96.5819V15.3103C95.7086 16.9867 94.0046 17.8249 91.4699 17.8249C90.128 17.8249 88.9672 17.5915 87.9874 17.1247C87.0076 16.6578 86.2621 16.0318 85.7509 15.2467C85.261 14.4403 85.0161 13.5279 85.0161 12.5093C85.0161 10.8753 85.6444 9.61273 86.9011 8.72149C88.1578 7.80902 90.0961 7.35278 92.7159 7.35278H96.1665C96.06 5.52785 94.8353 4.61538 92.4923 4.61538C91.6616 4.61538 90.8203 4.75331 89.9683 5.02918C89.1163 5.28382 88.3921 5.64456 87.7957 6.1114L85.7509 2.0053C86.7094 1.3687 87.8702 0.880636 89.2334 0.541113C90.6179 0.180371 92.0024 0 93.3869 0ZM93.1632 14.0053C93.8661 14.0053 94.4838 13.8355 95.0163 13.496C95.5488 13.1565 95.9322 12.6578 96.1665 12V10.504H93.5466C91.7788 10.504 90.8948 11.0875 90.8948 12.2546C90.8948 12.7851 91.0972 13.2095 91.5019 13.5279C91.9066 13.8462 92.4604 14.0053 93.1632 14.0053Z" fill="#00B956"/>
<path d="M124 0.28647L116.524 18.2387C115.65 20.3607 114.585 21.8462 113.329 22.695C112.072 23.565 110.539 24 108.728 24C107.812 24 106.886 23.8515 105.948 23.5544C105.032 23.2785 104.287 22.9072 103.712 22.4403L105.821 18.2069C106.161 18.5252 106.566 18.7692 107.035 18.939C107.525 19.13 108.014 19.2255 108.504 19.2255C109.079 19.2255 109.548 19.1088 109.91 18.8753C110.294 18.6419 110.613 18.2706 110.869 17.7613L103.456 0.28647H109.687L113.936 10.8223L118.217 0.28647H124Z" fill="#00B956"/>
</svg>
